<svg xmlns="http://www.w3.org/2000/svg" viewBox="0 0 640 360">
  <rect width="640" height="360" fill="#fff"/>
  <text x="32" y="38" font-size="22" font-weight="700" fill="#111827">Hotel occupancy</text>
  <text x="32" y="64" font-size="14" fill="#64748b">Percentages by season</text>
  <rect x="60" y="88" width="520" height="210" fill="#f8fafc" stroke="#94a3b8"/>
  <line x1="60" y1="138" x2="580" y2="138" stroke="#cbd5e1"/><line x1="60" y1="176" x2="580" y2="176" stroke="#cbd5e1"/><line x1="60" y1="214" x2="580" y2="214" stroke="#cbd5e1"/><line x1="60" y1="252" x2="580" y2="252" stroke="#cbd5e1"/><line x1="60" y1="290" x2="580" y2="290" stroke="#cbd5e1"/>
  <line x1="220" y1="88" x2="220" y2="298" stroke="#cbd5e1"/><line x1="340" y1="88" x2="340" y2="298" stroke="#cbd5e1"/><line x1="460" y1="88" x2="460" y2="298" stroke="#cbd5e1"/>
  <text x="80" y="112" font-size="13" font-weight="700" fill="#111827">Item</text><text x="245" y="112" font-size="13" font-weight="700" fill="#111827">2010</text><text x="365" y="112" font-size="13" font-weight="700" fill="#111827">2020</text><text x="485" y="112" font-size="13" font-weight="700" fill="#111827">2030</text>
  <text x="80" y="130" font-size="14" fill="#334155">Spring</text><text x="245" y="130" font-size="14" fill="#334155">120</text><text x="365" y="130" font-size="14" fill="#334155">180</text><text x="485" y="130" font-size="14" fill="#334155">95</text><text x="80" y="168" font-size="14" fill="#334155">Summer</text><text x="245" y="168" font-size="14" fill="#334155">155</text><text x="365" y="168" font-size="14" fill="#334155">162</text><text x="485" y="168" font-size="14" fill="#334155">123</text><text x="80" y="206" font-size="14" fill="#334155">Autumn</text><text x="245" y="206" font-size="14" fill="#334155">190</text><text x="365" y="206" font-size="14" fill="#334155">144</text><text x="485" y="206" font-size="14" fill="#334155">151</text><text x="80" y="244" font-size="14" fill="#334155">Winter</text><text x="245" y="244" font-size="14" fill="#334155">225</text><text x="365" y="244" font-size="14" fill="#334155">126</text><text x="485" y="244" font-size="14" fill="#334155">179</text><text x="80" y="282" font-size="14" fill="#334155">Average</text><text x="245" y="282" font-size="14" fill="#334155">260</text><text x="365" y="282" font-size="14" fill="#334155">108</text><text x="485" y="282" font-size="14" fill="#334155">207</text>
</svg>